<?xml version="1.0" encoding="iso-8859-1"?>
<!-- Generator: Adobe Illustrator 29.3.0, SVG Export Plug-In . SVG Version: 9.03 Build 55982)  -->
<svg version="1.1" baseProfile="basic" id="Layer_1"
	 xmlns="http://www.w3.org/2000/svg" xmlns:xlink="http://www.w3.org/1999/xlink" x="0px" y="0px" viewBox="0 0 24 24"
	 xml:space="preserve">
<path d="M21.5,21L8.5,3h-6l13,18H21.5z M19.544,20h-3.533L4.456,4h3.533L19.544,20z"/>
<path d="M9.996,13.04L3.441,21h1.295l6.032-7.324c0.176-0.213,0.146-0.528-0.068-0.704C10.486,12.795,10.17,12.827,9.996,13.04z"/>
<path d="M18.264,3l-5.476,6.649c-0.176,0.213-0.146,0.528,0.068,0.704c0.093,0.077,0.206,0.114,0.317,0.114
	c0.145,0,0.288-0.062,0.386-0.182L19.559,3H18.264z"/>
</svg>