<svg xmlns="http://www.w3.org/2000/svg"  viewBox="0 0 24 24" width="24px" height="24px"><path d="M 11.5 1.9960938 C 5.7421134 1.9960938 1.0078125 5.7574407 1.0078125 10.494141 C 1.0078125 15.085735 5.4861028 18.690448 11.003906 18.910156 L 11.003906 21.199219 A 0.750075 0.750075 0 0 0 11.933594 21.927734 L 12.039062 21.902344 A 0.750075 0.750075 0 0 0 12.068359 21.894531 C 12.765578 21.690729 13.629241 21.220248 14.646484 20.541016 C 15.663728 19.861783 16.79863 18.974168 17.873047 17.945312 C 20.02188 15.887604 21.992186 13.276705 21.992188 10.494141 C 21.992188 5.7572041 17.256006 1.9960938 11.5 1.9960938 z M 11.5 3.4960938 C 16.607994 3.4960938 20.492188 6.7770763 20.492188 10.494141 C 20.492188 12.524576 18.843355 14.939037 16.835938 16.861328 C 15.832228 17.822473 14.756038 18.662951 13.8125 19.292969 C 13.241876 19.673985 12.920768 19.790719 12.503906 19.996094 L 12.503906 18.494141 C 12.503906 17.92881 12.076406 17.490234 11.5 17.490234 C 6.3909463 17.490234 2.5078125 14.210202 2.5078125 10.494141 C 2.5078125 6.7768398 6.3898866 3.4960937 11.5 3.4960938 z M 5.4902344 7.9863281 A 0.50005 0.50005 0 0 0 4.9980469 8.4921875 L 4.9980469 12.492188 A 0.50005 0.50005 0 0 0 5.4980469 12.992188 L 7.4863281 12.992188 A 0.50005 0.50005 0 1 0 7.4863281 11.992188 L 5.9980469 11.992188 L 5.9980469 8.4921875 A 0.50005 0.50005 0 0 0 5.4902344 7.9863281 z M 9.4902344 7.9863281 A 0.50005 0.50005 0 0 0 8.9980469 8.4921875 L 8.9980469 12.492188 A 0.50005 0.50005 0 1 0 9.9980469 12.492188 L 9.9980469 8.4921875 A 0.50005 0.50005 0 0 0 9.4902344 7.9863281 z M 13.484375 7.9863281 A 0.50005 0.50005 0 0 0 12.990234 8.4921875 L 12.990234 10.363281 L 11.947266 8.2695312 A 0.50005 0.50005 0 0 0 10.998047 8.4921875 L 10.998047 12.492188 A 0.50005 0.50005 0 1 0 11.998047 12.492188 L 11.998047 10.619141 L 13.042969 12.716797 A 0.50005 0.50005 0 0 0 13.990234 12.492188 L 13.990234 8.4921875 A 0.50005 0.50005 0 0 0 13.484375 7.9863281 z M 15.501953 7.9921875 A 0.50005 0.50005 0 0 0 15.001953 8.4921875 L 15.001953 10.4375 A 0.50005 0.50005 0 0 0 15.001953 10.550781 L 15.001953 12.492188 A 0.50005 0.50005 0 0 0 15.501953 12.992188 L 17.486328 12.992188 A 0.50005 0.50005 0 1 0 17.486328 11.992188 L 16.001953 11.992188 L 16.001953 10.992188 L 17.486328 10.992188 A 0.50005 0.50005 0 1 0 17.486328 9.9921875 L 16.001953 9.9921875 L 16.001953 8.9921875 L 17.486328 8.9921875 A 0.50005 0.50005 0 1 0 17.486328 7.9921875 L 15.501953 7.9921875 z"/></svg>