<?xml version="1.0" encoding="iso-8859-1"?>
<!-- Generator: Adobe Illustrator 29.3.0, SVG Export Plug-In . SVG Version: 9.03 Build 55982)  -->
<svg version="1.1" baseProfile="basic" id="&#x421;&#x43B;&#x43E;&#x439;_1"
	 xmlns="http://www.w3.org/2000/svg" xmlns:xlink="http://www.w3.org/1999/xlink" x="0px" y="0px" viewBox="0 0 24 24"
	 xml:space="preserve">
<g>
	<path d="M9.78,15.498C9.686,15.501,9.594,15.51,9.5,15.51c-0.98,0-1.932-0.173-2.828-0.514c-0.172-0.065-0.524-0.23-0.524-0.23
		l-3.244,1.324l1.131-2.871c0,0-0.201-0.172-0.498-0.587C2.859,11.685,2.5,10.604,2.5,9.505c0-3.311,3.14-6.005,7-6.005
		s7,2.694,7,6.005c0,0.09-0.011,0.177-0.016,0.266C17,9.804,17.497,9.889,17.97,10.022C17.984,9.85,18,9.679,18,9.505
		C18,5.36,14.194,2,9.5,2S1,5.36,1,9.505c0,1.473,0.487,2.842,1.317,4.001L1,18l5.138-1.602C7.17,16.79,8.305,17.01,9.5,17.01
		c0.241,0,0.477-0.015,0.713-0.032C9.987,16.514,9.838,16.017,9.78,15.498z"/>
	<path d="M16,10.5c3.033,0,5.5,2.02,5.5,4.503c0,0.861-0.299,1.685-0.886,2.435l0.668,2.744l-2.866-1.145
		c0,0-0.342,0.136-0.487,0.181c-0.618,0.191-1.267,0.288-1.929,0.288c-3.033,0-5.5-2.02-5.5-4.503C10.5,12.52,12.967,10.5,16,10.5
		 M16,9c-3.866,0-7,2.687-7,6.003c0,3.315,3.134,6.003,7,6.003c0.833,0,1.632-0.126,2.373-0.356L23,22l-0.771-4.269
		C22.72,16.913,23,15.987,23,15.003C23,11.687,19.866,9,16,9L16,9z"/>
</g>
<circle cx="13.748" cy="13.748" r="0.748"/>
<circle cx="18.254" cy="13.748" r="0.748"/>
<circle cx="6.748" cy="6.748" r="0.748"/>
<circle cx="12.255" cy="6.748" r="0.748"/>
</svg>