<?xml version="1.0" standalone="no"?><!DOCTYPE svg PUBLIC "-//W3C//DTD SVG 1.1//EN" "http://www.w3.org/Graphics/SVG/1.1/DTD/svg11.dtd"><svg t="1754402203996" class="icon" viewBox="0 0 1024 1024" version="1.1" xmlns="http://www.w3.org/2000/svg" p-id="5092" xmlns:xlink="http://www.w3.org/1999/xlink" width="200" height="200"><path d="M922.0096 509.44c8.6016 0.9216 16.384 1.024 24.064 2.4576 31.232 6.144 49.664 25.9072 50.9952 57.6512 1.3312 31.3344 1.2288 62.5664 0 93.9008a53.4528 53.4528 0 0 1-43.3152 50.9952 85.4016 85.4016 0 0 1-46.08-1.2288c-22.9376-7.168-35.328-23.552-39.2192-47.104-0.8192-4.5056 1.024-5.7344 5.2224-5.632 16.5888 0.2048 33.28 0 49.7664 0H931.84c0.3072-2.048 0.7168-3.7888 0.7168-5.3248v-57.6512c-0.2048-13.2096-7.3728-21.2992-20.48-21.504-27.7504-0.3072-55.6032 0-83.3536 0-0.7168 0-1.2288 0.2048-2.6624 0.512-0.1024 2.6624-0.4096 5.4272-0.4096 8.192 0 41.3696 0 82.6368 0.2048 124.0064 0 6.8608-2.048 8.6016-8.6016 8.2944-16.1792-0.4096-32.256-0.1024-48.4352-0.1024-8.3968 0-8.3968 0-8.3968-8.704V576.512c-2.9696-0.1024-5.12-0.4096-7.5776-0.4096-16.7936 0-33.5872 0-50.3808 0.2048-5.0176 0-6.8608-1.3312-6.7584-6.7584 0.4096-17.408 0.3072-34.9184 0-52.4288-0.1024-5.12 1.3312-6.8608 6.5536-6.656 19.1488 0.2048 37.9904 0.1024 57.6512 0.1024v-53.248c-11.776 0-23.3472-0.4096-34.816 0.2048-6.4512 0.2048-8.0896-2.048-7.9872-8.192 0.4096-18.7392 0.2048-37.5808 0.2048-57.344h43.008c0-6.144 0.2048-11.264 0-16.384 0-3.7888 1.024-5.5296 5.12-5.5296 18.432 0.2048 36.864 0.2048 55.0912 0 4.096 0 5.4272 1.7408 5.3248 5.5296-0.2048 3.584 0.2048 6.9632-0.2048 10.5472-0.3072 4.7104 1.7408 5.632 6.144 5.9392 12.3904 0.6144 25.1904 0.3072 37.1712 3.3792 33.4848 8.192 52.4288 33.0752 53.248 67.584 0.2048 13.312 0 26.624 0 39.936v6.5536z m-96.4608 0.4096h32.4608c0-15.0528 0.2048-29.3888 0-43.8272-0.2048-4.9152-3.3792-8.3968-8.3968-8.6016-7.9872-0.4096-15.9744-0.2048-24.1664-0.2048l0.1024 52.6336zM469.7088 716.1856l14.336-28.8768c5.12-10.1376 10.4448-20.2752 15.36-30.5152 1.8432-4.096 4.1984-5.632 9.0112-5.632 16.7936 0.3072 33.5872 0.1024 50.5856 0.1024h7.9872v-7.5776c0-59.8016-0.1024-119.5008 0.1024-179.2 0-6.3488-1.9456-7.7824-7.8848-7.5776-9.9328 0.4096-20.0704 0.2048-30.208 0.2048-2.8672 0-5.12-0.4096-5.12-4.1984v-61.0304c3.072-0.1024 5.632-0.512 8.192-0.512 44.9536 0 89.8048 0.1024 134.656-0.1024 6.656 0 8.4992 2.048 8.3968 8.4992-0.4096 16.7936-0.3072 33.6896 0 50.5856 0.1024 5.12-1.4336 6.9632-6.656 6.7584-11.8784-0.4096-23.552-0.2048-35.84-0.2048v193.8432c2.048 0.1024 4.3008 0.4096 6.656 0.4096h51.2c4.5056 0 6.144 1.2288 6.144 5.9392-0.2048 18.1248 0 36.2496 0 54.4768 0 3.7888-1.024 5.4272-5.12 5.4272L473.7024 716.8c-1.2288 0-2.048-0.3072-3.9936-0.7168z m-364.4416-54.5792h42.1888v-8.192c0-91.9552 0.1024-183.9104-0.1024-275.7632 0-6.144 1.3312-8.192 7.8848-8.192 17.1008 0.6144 34.0992 0.3072 51.2 0.2048 4.7104-0.2048 6.4512 1.1264 6.4512 6.144l-0.2048 284.8768c0 5.632-1.024 11.4688-2.56 16.7936-7.5776 28.16-29.9008 42.5984-59.8016 38.912a51.6096 51.6096 0 0 1-45.6704-51.6096l0.6144-3.1744z" fill="#FF2E4D" p-id="5093"></path><path d="M416.5632 521.6256c-10.1376 0-19.0464 0.3072-27.9552 0a65.8432 65.8432 0 0 1-16.896-2.4576c-12.3904-3.7888-18.1248-14.2336-13.9264-26.8288 3.8912-11.264 8.6016-22.528 13.824-33.1776 13.7216-28.16 27.648-56.0128 41.7792-83.968 1.024-2.2528 3.6864-5.12 5.632-5.12 20.1728-0.4096 40.2432-0.3072 61.44-0.3072l-2.9696 6.9632-38.6048 77.5168c-3.584 7.168-2.6624 9.5232 4.096 11.8784 0.4096-0.3072 0.9216-0.4096 1.024-0.7168 2.56-8.6016 8.704-9.5232 16.6912-9.216 17.2032 0.4096 34.4064 0 53.1456 0l-3.584 7.68c-16.0768 32.0512-32.0512 64.1024-47.9232 96.256-5.8368 11.4688-3.4816 15.1552 9.728 15.36h25.7024l-3.3792 7.3728c-7.3728 14.5408-14.6432 28.9792-22.1184 43.3152a7.7824 7.7824 0 0 1-5.7344 3.6864c-20.48 0.2048-40.7552 0.512-61.0304 0-22.016-0.6144-31.1296-14.1312-23.7568-34.816a150.528 150.528 0 0 1 5.2224-12.6976l21.1968-43.6224 8.3968-17.1008z m-311.5008-65.2288l-3.8912 48.7424c-2.3552 28.7744-4.096 57.5488-7.5776 86.2208-3.7888 31.744-13.5168 61.8496-32.3584 88.2688a88.8832 88.8832 0 0 1-5.632 7.168c-1.1264-1.7408-2.3552-3.072-3.072-4.5056-10.5472-20.7872-21.4016-41.5744-31.8464-62.464-1.024-1.9456-2.048-4.8128-1.2288-6.5536 6.144-12.6976 6.9632-26.5216 7.9872-40.1408 2.9696-36.1472 5.9392-72.2944 8.4992-108.544 0.3072-6.3488 2.1504-8.6016 8.9088-8.2944 19.6608 0.512 39.424 0.1024 60.2112 0.1024z m197.4272 231.0144c-4.096-6.144-7.68-10.9568-10.752-16.1792a222.0032 222.0032 0 0 1-27.3408-95.6416L256 461.7216v-5.3248h14.4384c14.848 0 29.696 0.1024 44.6464-0.1024 4.096 0 5.632 1.1264 6.144 5.4272 2.9696 41.472 5.8368 82.944 9.4208 124.3136 0.6144 8.4992 3.8912 16.384 5.7344 24.7808 0.512 2.3552 1.3312 5.3248 0.4096 7.2704l-34.2016 69.3248z m34.0992 25.7024l6.9632-13.824c8.3968-16.384 16.896-32.5632 25.088-49.0496 1.8432-3.4816 3.6864-4.096 7.5776-3.4816 10.0352 1.8432 20.2752 3.6864 30.4128 4.096 18.432 0.6144 37.1712 0.2048 55.7056 0.2048h7.9872c-0.9216 2.4576-1.1264 4.096-2.048 5.5296-9.216 18.2272-18.8416 36.352-28.0576 54.784-2.048 4.1984-4.608 5.5296-9.216 5.5296-23.3472-0.1024-46.6944 0.2048-70.144-0.3072-7.5776 0-15.4624-2.1504-24.2688-3.4816z m615.424-256.512h-14.4384c-4.096 0.2048-5.4272-1.4336-5.3248-5.4272 0.2048-9.4208-0.2048-18.7392 0.2048-28.2624a32.6656 32.6656 0 0 1 65.1264 0.8192 32.768 32.768 0 0 1-32.5632 32.768c-4.3008 0.2048-8.704 0-13.0048 0z" fill="#FF2E4D" p-id="5094"></path></svg>